<svg xmlns="http://www.w3.org/2000/svg" width="1200" height="630" viewBox="0 0 1200 630" role="img" aria-label="KUK-CO d.o.o. — Elektroinstalacije jake i slabe struje">
  <defs>
    <linearGradient id="bg" x1="0" y1="0" x2="1" y2="1">
      <stop offset="0" stop-color="#0d1b33"/>
      <stop offset="1" stop-color="#08111f"/>
    </linearGradient>
    <linearGradient id="bolt" x1="0" y1="0" x2="1" y2="1">
      <stop offset="0" stop-color="#fbbf24"/>
      <stop offset="1" stop-color="#d97706"/>
    </linearGradient>
  </defs>
  <rect width="1200" height="630" fill="url(#bg)"/>
  <g opacity="0.07" stroke="#ffffff" stroke-width="1">
    <path d="M0 80 H1200 M0 160 H1200 M0 240 H1200 M0 320 H1200 M0 400 H1200 M0 480 H1200 M0 560 H1200"/>
    <path d="M80 0 V630 M240 0 V630 M400 0 V630 M560 0 V630 M720 0 V630 M880 0 V630 M1040 0 V630"/>
  </g>
  <circle cx="1050" cy="120" r="260" fill="#2577eb" opacity="0.25"/>
  <circle cx="120" cy="560" r="220" fill="#f59e0b" opacity="0.12"/>
  <path d="M880 150 L800 340 H880 L850 500 L1000 290 H910 L960 150 Z" fill="url(#bolt)"/>
  <text x="90" y="300" font-family="Sora, Arial, sans-serif" font-size="92" font-weight="800" fill="#ffffff">KUK-CO</text>
  <rect x="92" y="330" width="70" height="10" rx="5" fill="#f59e0b"/>
  <text x="92" y="400" font-family="Inter, Arial, sans-serif" font-size="38" font-weight="600" fill="#cbd7eb">Elektroinstalacije jake i slabe struje</text>
  <text x="92" y="455" font-family="Inter, Arial, sans-serif" font-size="30" fill="#688abd">Solin · Hrvatska · od 1993.</text>
</svg>
